<svg xmlns="http://www.w3.org/2000/svg" viewBox="0 0 230.42 165.62"><defs><style>.cls-1{fill:#222220;}.cls-2{fill:#c94e1b;}</style></defs><title>лого для белого фона</title><g id="Слой_2" data-name="Слой 2"><path class="cls-1" d="M21.05,50.86c0,1.21-.43,1.64-1.64,1.64h-4a3,3,0,0,1-3-3.09V29.22H8.67v20.2A3,3,0,0,1,5.59,52.5H1.64C.43,52.5,0,52.07,0,50.86V1.52C0,.31.23,0,1.52,0H5.7a3,3,0,0,1,3,3V22.19h3.71V3a3,3,0,0,1,.9-2.19,2.75,2.75,0,0,1,2-.86h4.22c1.25,0,1.52.31,1.52,1.52Z"/><path class="cls-1" d="M45.71,51l0,.47c0,.78-.31,1.05-1.41,1.05H40.12A3.12,3.12,0,0,1,38,51.64a2.84,2.84,0,0,1-1.09-2.15l-.27-5.16H33.17l-.27,5.16a3.28,3.28,0,0,1-3.16,3H25.51c-1.09,0-1.41-.23-1.41-1a2.07,2.07,0,0,1,0-.55l4.77-49.3C29,.43,29.54,0,30.83,0H39c1.25,0,1.72.39,1.88,1.68ZM34.93,8.75,33.48,37.46h2.85Z"/><path class="cls-1" d="M66.15,0a1.52,1.52,0,0,1,1.68,1.6V2.89c0,2.77-1.37,4.34-3.75,4.34h-2V50.86c0,1.25-.43,1.64-1.64,1.64H55c-1.21,0-1.6-.39-1.6-1.64V7.23h-2.3c-2.38,0-3.75-1.56-3.75-4.34V1.6A1.52,1.52,0,0,1,49,0Z"/><path class="cls-1" d="M91,51l0,.47c0,.78-.31,1.05-1.41,1.05H85.41a3.12,3.12,0,0,1-2.11-.86,2.84,2.84,0,0,1-1.09-2.15l-.27-5.16H78.46l-.27,5.16a3.28,3.28,0,0,1-3.16,3H70.8c-1.09,0-1.41-.23-1.41-1a2.07,2.07,0,0,1,0-.55L74.2,1.68C74.32.43,74.83,0,76.12,0h8.2c1.25,0,1.72.39,1.87,1.68ZM80.22,8.75,78.77,37.46h2.85Z"/><path class="cls-1" d="M97.92,1.6c0-1.25.31-1.6,1.52-1.6h17.81c1.21,0,1.68.43,1.68,1.64V51c0,1.21-.27,1.52-1.56,1.52h-4.18a2.85,2.85,0,0,1-2-.9,3,3,0,0,1-.9-2.15V7.23h-3.71V43.36a8.57,8.57,0,0,1-2.93,6.48,11.65,11.65,0,0,1-7.85,2.7h-.16a3,3,0,0,1-3-3v-3c0-1.25.39-1.56,1.64-1.56H96.2a2,2,0,0,0,1.72-2Z"/><path class="cls-1" d="M134,18.2a12.07,12.07,0,0,1,7.89,2.62,8.28,8.28,0,0,1,3,6.33V43.55A8.3,8.3,0,0,1,142,49.88a11.43,11.43,0,0,1-7.66,2.62h-9.3c-1.25,0-1.56-.35-1.56-1.6V1.6c0-1.25.31-1.6,1.56-1.6h4.1a3,3,0,0,1,2.07.86A2.79,2.79,0,0,1,132.18,3V18.2Zm-1.84,27.07h2a1.94,1.94,0,0,0,2.07-1.8V27.27a1.92,1.92,0,0,0-1.91-1.8h-2.15Z"/><path class="cls-1" d="M148.63,34.1c0-2.7,1.25-4.18,3.71-5a6.12,6.12,0,0,1-3.71-5.86V8.95a8.34,8.34,0,0,1,2.85-6.29A11.13,11.13,0,0,1,159.14,0h9.3c1.25,0,1.56.35,1.56,1.6V50.9c0,1.25-.31,1.6-1.56,1.6h-4.1a3.15,3.15,0,0,1-3-3V32.34h-2a2,2,0,0,0-2.07,1.8V49.53a2.77,2.77,0,0,1-.86,2.07,2.87,2.87,0,0,1-2.07.9H150.2c-1.25,0-1.56-.35-1.56-1.6Zm10.7-26.87A1.94,1.94,0,0,0,157.27,9V23.16a2,2,0,0,0,1.91,2h2.15V7.23Z"/><path class="cls-1" d="M0,62.63c0-1.13.35-1.56,1.56-1.56H15a1.48,1.48,0,0,1,1.68,1.6V64c0,2.81-1.25,4.34-3.71,4.34H8.67v42.3a2.71,2.71,0,0,1-.94,2.07,3.08,3.08,0,0,1-2.07.9H1.56C.31,113.57,0,113.22,0,112Z"/><path class="cls-1" d="M23.52,62.67c0-1.25.31-1.6,1.52-1.6H42.86c1.21,0,1.68.43,1.68,1.64V112c0,1.21-.27,1.52-1.56,1.52H38.8a2.85,2.85,0,0,1-2-.9,3,3,0,0,1-.9-2.15V68.3H32.16v36.13a8.57,8.57,0,0,1-2.93,6.48,11.65,11.65,0,0,1-7.85,2.7h-.16a3,3,0,0,1-3-3v-3c0-1.25.39-1.56,1.64-1.56H21.8a2,2,0,0,0,1.72-2Z"/><path class="cls-1" d="M61,107.4c-1.05,4.14-4.3,6.21-9.77,6.21h-.16a3,3,0,0,1-3-3v-3c0-1.25.39-1.56,1.64-1.56h1.91c.82-.12,1.29-.59,1.56-1.72l.82-4.22L47.63,62.95a2.07,2.07,0,0,1,0-.55c0-.9.47-1.33,1.56-1.33h3.71a3.87,3.87,0,0,1,2.34.86,2.9,2.9,0,0,1,1.25,2.15L58,85.72l1.52-21.64a3,3,0,0,1,1.29-2.15,3.85,3.85,0,0,1,2.3-.86h3.75c1.05,0,1.56.47,1.56,1.37a1.91,1.91,0,0,1,0,.51Z"/><path class="cls-1" d="M104.08,111.93c0,1.21-.43,1.64-1.64,1.64H73.07c-1.25,0-1.56-.35-1.56-1.6V62.71c0-1.25.31-1.64,1.56-1.64h4.1a2.86,2.86,0,0,1,2.11.86,2.9,2.9,0,0,1,.9,2.11v42.3h3.28V62.71c0-1.25.35-1.64,1.6-1.64h4.06a2.86,2.86,0,0,1,2.11.86,2.9,2.9,0,0,1,.9,2.11v42.3h3.28V64.12a3,3,0,0,1,.94-2.19,2.75,2.75,0,0,1,2-.86h4.14c1.29,0,1.56.31,1.56,1.52Z"/><path class="cls-1" d="M128.82,112l0,.47c0,.78-.31,1.05-1.41,1.05h-4.22a3.12,3.12,0,0,1-2.11-.86,2.84,2.84,0,0,1-1.09-2.15l-.27-5.16h-3.48l-.27,5.16a3.28,3.28,0,0,1-3.16,3h-4.22c-1.09,0-1.41-.23-1.41-1a2.08,2.08,0,0,1,0-.55L112,62.75c.12-1.25.63-1.68,1.91-1.68h8.2c1.25,0,1.72.39,1.87,1.68ZM118,69.82l-1.45,28.71h2.85Z"/><path class="cls-1" d="M141.71,90.29h-1.17V110.6a3.07,3.07,0,0,1-3,3h-4.1c-1.25,0-1.56-.35-1.56-1.6V62.67c0-1.25.31-1.6,1.56-1.6h4.1a3,3,0,0,1,2.07.86,2.79,2.79,0,0,1,.94,2.11V83.26h1.25l2.93-19.18a3.52,3.52,0,0,1,1.33-2.19,3.41,3.41,0,0,1,2.23-.82h4.53c1,0,1.25.16,1.25.78,0,.08,0,.31-.08.74L150.11,87,154,112c0,.43.08.66.08.74,0,.63-.27.78-1.25.78h-4.53a3.58,3.58,0,0,1-2.27-.86,3,3,0,0,1-1.29-2.15Z"/><path class="cls-1" d="M157.62,69.08a8.29,8.29,0,0,1,2.93-6.29,11.44,11.44,0,0,1,7.73-2.66,11.83,11.83,0,0,1,7.85,2.66A8.34,8.34,0,0,1,179,69.08v36.37a8.49,8.49,0,0,1-2.89,6.25,11.54,11.54,0,0,1-7.77,2.73,11.34,11.34,0,0,1-7.81-2.7,8.25,8.25,0,0,1-2.89-6.29Zm8.67,36.09a1.93,1.93,0,0,0,2.11,1.8,1.91,1.91,0,0,0,2-1.8V69.43a2,2,0,0,0-4.06,0Z"/><path class="cls-1" d="M185,113.57c-1.25,0-1.56-.35-1.56-1.6V62.67c0-1.25.31-1.6,1.56-1.6h9.3a11.27,11.27,0,0,1,7.73,2.7A8.53,8.53,0,0,1,204.81,70V81.34a6.29,6.29,0,0,1-2.58,5.51,6,6,0,0,1,2.58,5.31v12.46a8.32,8.32,0,0,1-2.81,6.21,11.29,11.29,0,0,1-7.73,2.73Zm7.11-45.27V83.45h2.15a2.05,2.05,0,0,0,1.91-2.07V70.09a2,2,0,0,0-2.07-1.8Zm0,21.91v16.13h2a2,2,0,0,0,2.07-1.8V92.28a2.05,2.05,0,0,0-1.91-2.07Z"/><path class="cls-1" d="M229.47,112l0,.47c0,.78-.31,1.05-1.41,1.05h-4.22a3.12,3.12,0,0,1-2.11-.86,2.84,2.84,0,0,1-1.09-2.15l-.27-5.16h-3.48l-.27,5.16a3.28,3.28,0,0,1-3.16,3h-4.22c-1.09,0-1.41-.23-1.41-1a2.07,2.07,0,0,1,0-.55l4.77-49.3c.12-1.25.63-1.68,1.91-1.68h8.2c1.25,0,1.72.39,1.88,1.68ZM218.69,69.82l-1.45,28.71h2.85Z"/><path class="cls-1" d="M.43,165.39c-.35,0-.43-.1-.43-.44V151.31c0-.35.09-.44.43-.44H3a3.12,3.12,0,0,1,2.14.75,2.36,2.36,0,0,1,.77,1.73v3.13A1.74,1.74,0,0,1,5.2,158a1.65,1.65,0,0,1,.71,1.47v3.45a2.3,2.3,0,0,1-.78,1.72,3.12,3.12,0,0,1-2.14.76Zm2-12.52v4.19H3a.57.57,0,0,0,.53-.57v-3.12a.55.55,0,0,0-.57-.5Zm0,6.06v4.46h.55a.56.56,0,0,0,.57-.5V159.5a.57.57,0,0,0-.53-.57Z"/><path class="cls-1" d="M20.82,165v.13c0,.22-.09.29-.39.29H19.28a.86.86,0,0,1-.58-.24.79.79,0,0,1-.3-.59l-.08-1.43h-1l-.08,1.43a.91.91,0,0,1-.88.83H15.24c-.3,0-.39-.06-.39-.27a.55.55,0,0,1,0-.15l1.32-13.63c0-.35.17-.46.53-.46H19c.35,0,.48.11.52.46Zm-3-11.68-.4,7.94h.79Z"/><path class="cls-1" d="M38.79,164.93c0,.34-.12.45-.45.45H30.21c-.35,0-.43-.1-.43-.44V151.32c0-.35.09-.45.43-.45h1.13a.79.79,0,0,1,.58.24.8.8,0,0,1,.25.58v11.7h.91V151.32c0-.35.1-.45.44-.45h1.12a.79.79,0,0,1,.58.24.8.8,0,0,1,.25.58v11.7h.91V151.71a.83.83,0,0,1,.26-.6.76.76,0,0,1,.56-.24h1.14c.36,0,.43.09.43.42Z"/><path class="cls-1" d="M53.73,165v.13c0,.22-.09.29-.39.29H52.18a.86.86,0,0,1-.58-.24.79.79,0,0,1-.3-.59l-.08-1.43h-1l-.08,1.43a.91.91,0,0,1-.87.83H48.14c-.3,0-.39-.06-.39-.27a.58.58,0,0,1,0-.15l1.32-13.63c0-.35.17-.46.53-.46h2.27c.35,0,.48.11.52.46Zm-3-11.68-.4,7.94h.79Z"/><path class="cls-1" d="M79.25,150.87a.42.42,0,0,1,.46.44v.36c0,.77-.38,1.2-1,1.2h-.55v12.07c0,.35-.12.45-.45.45h-1.5c-.33,0-.44-.11-.44-.45V152.86h-.64c-.66,0-1-.43-1-1.2v-.36a.42.42,0,0,1,.46-.44Z"/><path class="cls-1" d="M88.65,153.08a2.29,2.29,0,0,1,.81-1.74,3.16,3.16,0,0,1,2.14-.73,3.27,3.27,0,0,1,2.17.73,2.31,2.31,0,0,1,.79,1.74v10.06a2.35,2.35,0,0,1-.8,1.73,3.19,3.19,0,0,1-2.15.76,3.13,3.13,0,0,1-2.16-.75,2.28,2.28,0,0,1-.8-1.74Zm2.4,10a.53.53,0,0,0,.58.5.53.53,0,0,0,.54-.5v-9.88a.57.57,0,0,0-1.12,0Z"/><path class="cls-1" d="M107.41,151.71a.82.82,0,0,1,.8-.84h1.18c.35,0,.42.09.42.42v13.64c0,.34-.13.45-.46.45h-1.09a.83.83,0,0,1-.84-.85v-3.92c-.1.59-.56.89-1.41.89a1.94,1.94,0,0,1-1.52-.68,2.56,2.56,0,0,1-.58-1.75v-7.78c0-.34.06-.42.42-.42h1.16a.84.84,0,0,1,.82.84V159a.54.54,0,0,0,.55.51.58.58,0,0,0,.57-.53Z"/><path class="cls-1" d="M121.77,158.95h-.32v5.62a.85.85,0,0,1-.83.82h-1.13c-.35,0-.43-.1-.43-.44V151.31c0-.35.09-.44.43-.44h1.13a.82.82,0,0,1,.57.24.77.77,0,0,1,.26.58V157h.35l.81-5.3a1,1,0,0,1,.37-.61.94.94,0,0,1,.62-.23h1.25c.27,0,.35,0,.35.22,0,0,0,.09,0,.21L124.09,158l1.07,6.94c0,.12,0,.18,0,.21,0,.17-.08.22-.35.22h-1.25a1,1,0,0,1-.63-.24.82.82,0,0,1-.36-.59Z"/><path class="cls-1" d="M139.83,165v.13c0,.22-.09.29-.39.29h-1.17a.86.86,0,0,1-.58-.24.79.79,0,0,1-.3-.59l-.08-1.43h-1l-.08,1.43a.91.91,0,0,1-.87.83h-1.17c-.3,0-.39-.06-.39-.27a.58.58,0,0,1,0-.15l1.32-13.63c0-.35.17-.46.53-.46H138c.35,0,.47.11.52.46Zm-3-11.68-.4,7.94h.79Z"/><path class="cls-1" d="M160.55,153.08a2.29,2.29,0,0,1,.81-1.74,3.16,3.16,0,0,1,2.14-.73,3.27,3.27,0,0,1,2.17.73,2.31,2.31,0,0,1,.79,1.74v10.06a2.35,2.35,0,0,1-.8,1.73,3.19,3.19,0,0,1-2.15.76,3.13,3.13,0,0,1-2.16-.75,2.28,2.28,0,0,1-.8-1.74Zm2.4,10a.53.53,0,0,0,.58.5.53.53,0,0,0,.54-.5v-9.88a.57.57,0,0,0-1.12,0Z"/><path class="cls-1" d="M181.62,165c0,.33-.08.42-.43.42H180a.79.79,0,0,1-.56-.25.81.81,0,0,1-.26-.59V152.86h-1v11.7a.85.85,0,0,1-.83.82h-1.13c-.35,0-.43-.11-.43-.45V151.31c0-.35.09-.44.43-.44h4.93c.33,0,.45.12.45.45Z"/><path class="cls-1" d="M191,153.08a2.29,2.29,0,0,1,.81-1.74,3.16,3.16,0,0,1,2.14-.73,3.27,3.27,0,0,1,2.17.73,2.31,2.31,0,0,1,.79,1.74v10.06a2.35,2.35,0,0,1-.8,1.73,3.19,3.19,0,0,1-2.15.76,3.13,3.13,0,0,1-2.16-.75,2.28,2.28,0,0,1-.8-1.74Zm2.4,10a.53.53,0,0,0,.58.5.53.53,0,0,0,.54-.5v-9.88a.57.57,0,0,0-1.12,0Z"/><path class="cls-1" d="M208.63,160.35v4.21a.75.75,0,0,1-.26.57.85.85,0,0,1-.57.25h-1.13c-.35,0-.43-.1-.43-.44V151.31c0-.35.09-.44.43-.44h2.57a3.16,3.16,0,0,1,2.12.72,2.3,2.3,0,0,1,.79,1.75v4.54a2.29,2.29,0,0,1-.82,1.75,3.33,3.33,0,0,1-2.18.72Zm0-2h.59a.55.55,0,0,0,.53-.5v-4.48a.55.55,0,0,0-.57-.5h-.55Z"/><path class="cls-1" d="M224.18,155.9a3.33,3.33,0,0,1,2.18.72,2.29,2.29,0,0,1,.82,1.75v4.54a2.3,2.3,0,0,1-.79,1.75,3.16,3.16,0,0,1-2.12.72H221.7c-.35,0-.43-.1-.43-.44V151.31c0-.35.09-.44.43-.44h1.13a.82.82,0,0,1,.57.24.77.77,0,0,1,.26.58v4.21Zm-.51,7.49h.55a.54.54,0,0,0,.57-.5v-4.48a.53.53,0,0,0-.53-.5h-.59Zm6.75-12.1c0-.34-.08-.42-.43-.42h-1.14a.76.76,0,0,0-.56.24.83.83,0,0,0-.26.6v13.21c0,.35.13.46.46.46H230c.33,0,.46-.12.46-.46Z"/><rect class="cls-2" x="17.85" y="127.36" width="211.45" height="9.1" rx="1.42" ry="1.42"/><rect class="cls-2" y="127.36" width="9.1" height="9.1" rx="1.42" ry="1.42"/></g></svg>